<svg width="188" height="6" viewBox="0 0 188 6" fill="none" xmlns="http://www.w3.org/2000/svg">
<path d="M0.333333 3C0.333333 4.47276 1.52724 5.66667 3 5.66667C4.47276 5.66667 5.66667 4.47276 5.66667 3C5.66667 1.52724 4.47276 0.333333 3 0.333333C1.52724 0.333333 0.333333 1.52724 0.333333 3ZM182.333 3C182.333 4.47276 183.527 5.66667 185 5.66667C186.473 5.66667 187.667 4.47276 187.667 3C187.667 1.52724 186.473 0.333333 185 0.333333C183.527 0.333333 182.333 1.52724 182.333 3ZM3 3.5H185V2.5H3V3.5Z" fill="#495057"/>
</svg>
